<svg xmlns="http://www.w3.org/2000/svg" width="31" height="52" viewBox="0 0 31 52" fill="none">
  <path d="M 6.56 51.985 C 6.56 51.985 6.194 51.999 5.741 51.999 C 5.116 51.992 3.286 51.999 1.649 51.999 C 0.265 52.039 -0.374 51.027 0.225 49.738 C 0.957 48.159 2.474 44.941 3.605 42.545 C 7.85 33.53 16.547 15.095 23.028 1.377 C 22.888 0.634 23.454 0.013 24.292 0 C 24.712 0.169 25.284 0.776 25.563 1.356 C 26.688 3.705 29.004 8.489 30.747 12.045 C 31.073 12.43 31.086 13.28 30.774 13.955 C 27.034 21.93 19.435 38.253 13.806 50.427 C 13.639 51.277 12.595 51.952 11.47 51.931 C 9.833 51.898 8.196 51.925 7.378 51.925 C 6.925 51.925 6.56 51.925 6.56 51.938 L 6.56 51.992 L 6.56 51.985 Z" fill="currentColor" fill-rule="nonzero"></path>
</svg>